<?xml version="1.0" standalone="no"?>
<!DOCTYPE svg PUBLIC "-//W3C//DTD SVG 20010904//EN"
 "http://www.w3.org/TR/2001/REC-SVG-20010904/DTD/svg10.dtd">
<svg version="1.0" xmlns="http://www.w3.org/2000/svg"
 width="50.000000pt" height="50.000000pt" viewBox="0 0 512.000000 512.000000"
 preserveAspectRatio="xMidYMid meet">

<g transform="translate(0.000000,512.000000) scale(0.100000,-0.100000)"
fill="#4eda99" stroke="none">
<path d="M3559 4959 c-15 -17 -42 -54 -59 -84 -30 -52 -31 -53 -60 -42 -35 13
-53 5 -84 -37 -15 -20 -22 -46 -24 -101 -4 -65 -6 -72 -19 -60 -8 8 -29 15
-48 15 -39 0 -72 -34 -101 -104 -13 -31 -27 -49 -45 -55 -25 -9 -27 -7 -39 32
-15 50 -46 113 -60 122 -36 22 -77 -44 -101 -163 -12 -59 -15 -63 -36 -57 -52
13 -85 -41 -63 -100 6 -16 31 -51 56 -77 38 -41 64 -83 64 -105 0 -3 -10 9
-23 28 -33 50 -80 71 -151 66 -50 -3 -62 -8 -81 -31 l-22 -28 -5 64 c-9 105
-91 248 -143 248 -45 0 -120 -122 -131 -212 l-6 -54 -34 4 c-73 9 -82 -50 -25
-160 l30 -59 -35 7 c-47 9 -60 -5 -74 -82 -30 -159 8 -269 144 -412 76 -81 99
-112 80 -112 -19 0 -47 27 -87 82 -75 106 -162 175 -243 192 -45 10 -68 -19
-62 -77 l5 -44 -52 -17 c-58 -18 -146 -77 -156 -103 -4 -10 0 -30 7 -45 20
-38 116 -104 174 -119 l49 -12 -15 -28 c-17 -34 -18 -63 -2 -77 7 -5 60 -12
118 -14 91 -3 113 -8 164 -33 164 -82 259 -266 228 -443 -6 -38 -34 -118 -65
-187 -30 -66 -67 -155 -83 -197 l-28 -77 -18 30 c-17 29 -17 29 11 75 57 88
68 232 22 277 -44 44 -183 22 -254 -41 -9 -8 -19 -13 -21 -11 -2 2 0 29 4 59
20 141 -21 233 -95 214 -20 -5 -25 -2 -30 23 -28 127 -77 184 -134 154 -15 -9
-21 -2 -40 43 -46 112 -89 124 -150 44 -52 -70 -81 -139 -88 -213 l-6 -62 -40
1 c-36 1 -42 -2 -51 -26 -13 -36 14 -104 64 -160 l39 -44 -52 17 c-34 12 -54
25 -60 41 -6 12 -9 72 -9 132 l2 108 -34 34 c-19 19 -41 34 -50 34 -13 0 -16
13 -16 77 0 86 -24 152 -65 179 -21 14 -27 14 -55 -1 -17 -9 -36 -27 -42 -40
l-11 -24 -40 45 c-66 75 -154 106 -190 66 -29 -32 -58 -112 -60 -163 -2 -37
-6 -49 -18 -49 -28 0 -58 44 -69 100 -14 75 -44 131 -103 196 -43 47 -54 55
-81 52 -26 -3 -35 -11 -56 -53 -14 -27 -26 -52 -27 -54 -1 -2 -25 6 -53 18
-65 28 -144 38 -165 21 -31 -26 -9 -106 51 -186 l23 -31 -24 -23 c-14 -13 -25
-32 -25 -42 0 -49 61 -116 129 -139 l32 -11 -30 -19 c-17 -10 -33 -29 -37 -43
-6 -27 20 -86 62 -135 18 -22 24 -38 20 -54 -5 -21 -10 -22 -98 -22 -90 0 -93
-1 -96 -24 -3 -19 14 -41 77 -103 77 -76 80 -81 66 -101 -23 -33 -18 -55 18
-77 38 -24 70 -25 127 -5 23 8 63 14 89 14 45 -1 45 -1 11 -8 -19 -4 -45 -13
-56 -19 -57 -31 -109 -136 -86 -173 18 -28 16 -29 -41 -6 -39 16 -74 21 -142
21 -112 0 -152 -16 -147 -58 7 -67 80 -168 145 -202 31 -17 32 -21 13 -43 -14
-16 -19 -34 -17 -59 2 -23 67 -42 142 -42 l72 0 -21 -23 c-12 -13 -22 -33 -22
-44 0 -28 69 -86 150 -126 59 -29 73 -32 160 -32 76 0 111 6 178 28 46 15 95
27 110 27 24 0 25 -1 10 -16 -9 -10 -52 -22 -101 -30 -47 -8 -110 -23 -139
-34 -101 -38 -175 -110 -152 -148 9 -14 55 -43 86 -54 4 -2 2 -23 -3 -48 -6
-25 -8 -74 -4 -108 8 -79 31 -107 78 -97 51 11 145 65 178 103 17 19 31 33 33
31 1 -2 10 -17 20 -32 14 -23 23 -28 49 -25 29 3 35 10 68 78 48 98 74 125
145 146 79 23 285 15 399 -15 145 -39 303 -126 323 -178 5 -15 15 -73 22 -128
28 -241 103 -500 201 -695 33 -65 71 -128 85 -139 35 -28 77 -26 110 3 43 36
37 74 -29 182 -55 91 -137 267 -137 296 0 10 41 31 123 61 161 61 203 70 289
65 95 -5 171 -40 241 -110 74 -75 100 -132 105 -238 2 -47 9 -91 14 -97 14
-18 59 -16 86 3 20 14 22 14 22 -1 0 -56 111 -195 156 -195 34 0 95 96 109
172 7 35 9 36 40 31 146 -24 66 175 -114 280 -51 30 -95 77 -73 77 6 0 45 -30
89 -67 101 -86 166 -116 262 -121 81 -5 184 13 202 34 6 8 9 27 5 44 -6 34 -5
35 33 15 16 -8 50 -19 75 -25 71 -16 106 12 86 65 -8 21 -7 25 8 25 52 0 124
33 176 81 31 28 56 55 56 60 0 16 -52 60 -102 85 -26 13 -78 29 -116 36 -60
10 -68 14 -56 26 19 19 18 116 -2 158 -9 19 -28 41 -43 49 -14 8 -22 14 -18
15 14 0 51 -22 91 -56 44 -38 96 -52 132 -35 19 8 24 18 24 49 0 39 0 39 53
51 60 13 125 48 141 74 15 25 -21 53 -96 74 -52 14 -58 19 -52 37 4 12 11 23
16 24 31 12 105 71 118 95 14 25 13 30 -2 57 l-17 30 42 0 c46 0 114 27 136
53 13 16 12 43 -3 77 -4 11 4 21 26 33 42 23 93 69 108 97 26 49 -45 90 -154
90 l-46 0 0 46 c0 63 -13 84 -54 84 -51 0 -151 -55 -193 -107 -71 -85 -91
-103 -117 -103 -24 0 -25 1 -11 32 21 52 28 121 16 165 -9 34 -17 44 -45 53
-37 12 -106 1 -157 -25 -35 -19 -39 -19 -39 0 0 9 -7 29 -15 45 -12 24 -22 30
-47 30 -45 0 -123 -80 -140 -143 -11 -44 -14 -47 -46 -47 -18 0 -46 -7 -61
-15 -27 -14 -36 -30 -60 -104 -6 -19 -23 -54 -37 -78 -24 -41 -27 -43 -72 -43
-52 1 -52 1 28 50 56 34 86 83 71 116 -7 16 -19 24 -36 24 -30 0 -29 -3 -9 68
18 62 15 181 -6 240 -21 57 -80 51 -144 -17 -29 -31 -30 -31 -48 -11 -10 11
-27 20 -36 20 -27 0 -98 -56 -122 -96 -22 -34 -22 -34 -50 -18 -17 11 -37 14
-53 10 -30 -7 -78 -79 -102 -154 l-17 -53 -27 39 c-61 83 -138 124 -191 102
-61 -25 -104 -177 -77 -272 6 -21 4 -28 -7 -28 -20 0 -46 -39 -46 -68 0 -13
27 -70 60 -128 34 -57 81 -146 106 -197 40 -81 45 -98 41 -145 -5 -68 -38
-110 -139 -178 -76 -52 -256 -130 -313 -136 l-30 -3 -7 90 c-9 114 6 337 32
488 49 288 136 557 294 909 36 81 85 202 107 268 46 135 69 174 118 207 74 50
188 20 481 -127 138 -69 169 -72 199 -19 15 28 18 29 67 23 94 -11 233 45 255
104 21 56 -47 159 -136 204 l-40 21 25 10 c138 56 200 101 200 146 0 16 -9 36
-20 46 -26 24 -26 26 14 52 19 12 49 43 66 68 36 53 37 93 2 111 -20 10 -21
13 -8 24 30 24 76 104 76 130 0 37 -14 46 -90 60 -78 14 -146 7 -222 -24 l-58
-24 0 23 c0 25 -29 55 -53 55 -30 0 -81 -55 -113 -124 l-32 -70 -5 55 c-4 52
-3 55 36 91 22 21 66 47 98 59 80 29 113 68 106 125 l-4 41 53 23 c58 24 130
94 141 138 9 35 -7 55 -58 72 -24 8 -45 15 -47 16 -1 0 6 16 15 35 10 19 19
65 21 104 4 62 1 72 -18 90 -31 28 -138 26 -200 -4 -24 -11 -45 -21 -47 -21
-2 0 -3 16 -3 36 0 30 7 43 37 68 92 78 148 167 160 255 5 34 2 41 -21 56 -20
14 -38 16 -76 11 l-50 -7 0 44 c0 53 -25 140 -46 162 -24 23 -53 18 -85 -16z
m67 -169 c-3 -36 -7 -76 -8 -90 -4 -32 26 -39 56 -11 11 11 41 23 65 27 42 7
43 6 36 -17 -20 -69 -60 -131 -114 -178 -70 -61 -85 -92 -79 -166 5 -54 4 -56
-28 -76 -70 -43 -184 -187 -184 -233 0 -24 29 -46 61 -46 48 0 112 69 167 180
57 114 101 149 192 153 l55 2 3 -47 c3 -46 -23 -117 -48 -133 -15 -9 -12 -61
4 -74 8 -6 33 -10 56 -9 56 4 62 -14 16 -56 -40 -39 -106 -64 -188 -73 -32 -3
-58 -9 -58 -12 0 -3 -3 -16 -6 -28 -6 -22 -3 -23 45 -23 38 0 53 -4 58 -16 11
-29 -13 -59 -65 -77 -27 -9 -72 -32 -98 -50 -43 -29 -53 -32 -78 -23 -27 10
-31 8 -71 -36 -24 -26 -53 -72 -65 -102 -19 -45 -30 -57 -64 -73 -53 -23 -156
-121 -212 -199 -87 -122 -105 -204 -53 -233 25 -14 31 -13 91 17 120 59 194
161 248 342 23 74 65 167 93 205 15 20 16 19 26 -8 6 -16 11 -59 11 -96 0 -74
10 -91 50 -91 35 0 53 21 84 100 15 36 35 76 46 90 l20 25 0 -27 c0 -26 30
-68 48 -68 4 0 24 11 44 25 54 37 141 57 211 49 31 -3 59 -9 62 -14 8 -13 -75
-100 -116 -121 -68 -34 -46 -97 31 -86 36 5 39 3 30 -13 -24 -44 -90 -87 -124
-81 -24 5 -85 3 -105 -4 -15 -5 -21 -13 -19 -28 3 -19 11 -23 58 -27 57 -6 88
-18 110 -45 11 -13 10 -18 -6 -31 -37 -29 -113 -64 -176 -80 -73 -20 -88 -29
-88 -55 0 -14 20 -28 73 -53 121 -55 190 -133 149 -169 -55 -48 -141 -65 -222
-43 -49 13 -57 13 -72 -1 -11 -10 -16 -24 -12 -38 3 -13 2 -25 -3 -28 -5 -3
-57 18 -115 47 -58 29 -157 75 -219 102 -107 45 -120 49 -200 49 -75 0 -90 -3
-122 -25 -59 -40 -94 -100 -142 -240 -25 -73 -70 -186 -101 -253 -205 -450
-308 -819 -334 -1199 -13 -202 -2 -344 30 -370 29 -24 47 -23 138 8 226 75
388 186 428 291 28 72 16 131 -53 268 -33 66 -79 150 -102 188 -22 37 -41 72
-41 77 0 6 11 10 24 10 43 0 50 22 31 95 -15 56 -16 73 -6 118 6 28 20 63 30
76 18 23 18 23 55 6 42 -20 71 -54 113 -135 15 -30 36 -56 46 -58 26 -5 47 16
47 48 0 38 35 148 60 189 l21 33 24 -22 c27 -25 44 -72 42 -110 -2 -19 3 -26
20 -28 32 -5 49 39 34 90 -13 43 -2 80 37 120 31 34 40 35 35 5 -5 -30 19 -72
41 -72 12 0 32 21 55 59 36 59 85 106 97 93 4 -4 9 -42 12 -86 4 -69 1 -85
-23 -139 -33 -73 -30 -94 14 -108 l34 -11 -29 -20 c-16 -11 -50 -29 -76 -41
-59 -26 -85 -63 -70 -97 13 -27 16 -28 113 -25 37 1 70 -3 73 -9 11 -17 -59
-61 -180 -111 -65 -27 -141 -65 -171 -85 -108 -72 -189 -233 -138 -275 62 -51
293 117 367 267 25 52 39 67 83 92 28 16 66 44 83 61 31 31 42 73 22 85 -5 3
3 25 19 50 16 25 34 66 41 92 17 62 28 75 59 71 20 -2 26 -9 27 -28 2 -59 3
-61 31 -58 26 3 27 6 30 72 5 81 34 157 72 187 l26 21 5 -53 c4 -46 8 -55 31
-63 21 -7 33 -3 71 26 51 39 125 58 140 36 22 -35 -1 -125 -44 -173 -16 -19
-56 -49 -89 -66 -82 -44 -149 -117 -149 -163 0 -41 25 -60 66 -50 35 9 149
116 180 170 25 43 26 43 68 38 63 -9 109 16 156 86 29 43 53 64 98 88 33 18
63 32 66 32 15 0 4 -70 -14 -93 -40 -50 -22 -63 64 -47 67 14 161 6 150 -12
-4 -5 -33 -27 -66 -48 -54 -35 -63 -38 -111 -33 -41 4 -56 2 -66 -11 -20 -24
1 -42 54 -48 54 -7 80 -24 64 -44 -19 -23 -77 -27 -171 -14 -100 15 -120 7
-120 -45 0 -36 12 -46 68 -56 27 -5 54 -15 62 -22 11 -11 6 -18 -26 -39 -66
-44 -110 -53 -204 -40 -115 16 -166 15 -214 -7 -45 -21 -84 -73 -84 -114 0
-85 187 -71 292 22 24 20 46 31 67 31 30 0 41 -13 21 -25 -6 -3 -10 -17 -10
-30 0 -26 6 -29 93 -40 26 -3 45 -10 42 -16 -3 -5 -32 -16 -63 -24 -102 -28
-105 -31 -99 -71 7 -43 0 -42 -76 16 -82 62 -156 67 -174 13 -15 -46 -5 -73
28 -80 27 -5 57 -29 48 -37 -2 -3 -29 2 -59 10 -70 18 -130 18 -205 -2 -100
-25 -93 -29 -78 48 4 20 0 29 -18 38 -32 18 -131 5 -220 -27 -62 -22 -92 -27
-184 -28 -126 -1 -175 -18 -195 -65 -17 -42 2 -96 42 -116 42 -22 87 -8 170
54 74 55 156 94 243 117 85 22 92 20 87 -13 -3 -20 4 -38 24 -61 30 -36 32
-36 139 -6 69 20 158 16 224 -11 40 -16 55 -34 27 -34 -8 0 -23 -11 -34 -25
-40 -50 4 -101 76 -89 44 7 160 -23 196 -51 16 -12 17 -17 5 -31 -21 -26 -110
-64 -150 -64 -19 0 -44 7 -55 15 -10 8 -31 15 -46 15 -39 0 -39 -39 1 -61 30
-17 49 -59 26 -59 -18 0 -75 25 -110 50 -62 42 -106 17 -86 -49 6 -21 11 -43
11 -49 0 -26 -146 -32 -217 -8 -45 15 -67 30 -193 133 -57 47 -100 55 -132 26
-43 -38 -6 -115 78 -162 66 -38 126 -91 155 -137 24 -39 21 -51 -9 -35 -50 27
-82 3 -82 -61 0 -36 -43 -138 -59 -138 -12 0 -57 54 -76 90 -8 15 -17 47 -21
71 -11 74 -33 86 -82 44 l-29 -25 -5 70 c-7 96 -49 179 -127 254 -85 80 -171
119 -278 124 -98 5 -133 -3 -316 -70 -149 -55 -163 -66 -154 -127 8 -55 73
-200 137 -308 44 -72 56 -101 48 -110 -21 -26 -38 -11 -82 70 -108 198 -193
487 -221 752 -4 33 -11 76 -16 96 -23 92 -226 203 -446 245 -128 24 -318 16
-391 -15 -62 -28 -105 -74 -140 -150 l-26 -55 -9 29 c-12 36 -35 65 -53 65 -7
0 -21 -12 -31 -26 -57 -82 -133 -144 -177 -144 -25 0 -31 81 -11 161 19 81 11
105 -35 96 -47 -10 -56 8 -18 37 45 33 131 63 211 72 98 11 157 49 157 103 0
65 -70 77 -202 34 -119 -39 -231 -39 -308 0 -30 16 -66 37 -78 47 l-24 20 31
37 c32 39 39 71 20 90 -7 7 -46 9 -115 5 -73 -3 -104 -2 -104 6 0 16 46 44 77
48 29 3 44 20 36 41 -6 14 -8 15 -75 17 -35 1 -58 10 -90 32 -44 31 -107 119
-94 132 4 3 42 7 84 7 62 -1 88 -6 136 -28 67 -31 98 -34 120 -11 22 21 20 56
-4 87 -19 24 -19 26 -3 31 29 9 130 -11 189 -38 30 -14 76 -43 102 -65 37 -32
57 -41 85 -41 41 0 77 28 77 60 0 29 16 25 85 -25 77 -55 142 -127 187 -208
18 -34 52 -80 74 -104 50 -52 86 -56 132 -18 86 73 24 168 -148 225 -53 18
-78 35 -140 93 -88 85 -165 130 -213 125 -30 -3 -32 -6 -35 -45 -4 -54 -19
-55 -75 -7 -61 51 -159 95 -228 101 -33 3 -62 9 -65 14 -9 15 38 31 71 25 27
-5 36 -3 49 16 41 58 0 118 -81 118 -25 0 -73 -8 -109 -17 -68 -18 -87 -14
-61 15 30 33 20 55 -55 117 -64 52 -70 60 -50 63 13 2 45 -4 71 -14 63 -22 81
-15 81 31 0 33 2 36 23 30 27 -8 44 -28 80 -94 47 -88 188 -174 236 -144 44
27 38 113 -11 169 -39 44 -81 66 -193 98 -49 14 -105 37 -125 50 -34 22 -100
107 -100 129 0 10 80 4 117 -8 16 -5 28 -1 47 19 50 49 28 80 -79 107 -43 11
-91 27 -107 35 -29 15 -68 53 -68 66 0 16 51 20 100 7 43 -11 53 -11 60 1 14
22 0 38 -48 56 -26 10 -56 25 -67 35 -27 24 -89 128 -81 136 12 13 116 -28
156 -62 61 -51 100 -44 78 13 -9 25 5 97 21 106 23 15 120 -141 121 -194 1
-37 34 -105 61 -124 13 -9 40 -21 59 -26 35 -9 36 -12 47 -77 16 -92 88 -234
125 -247 22 -8 32 -6 48 9 42 38 12 157 -64 250 -52 63 -70 105 -69 161 0 57
29 127 54 132 27 5 95 -53 117 -101 12 -25 30 -48 41 -52 30 -9 61 12 68 45 9
49 29 57 49 19 24 -48 15 -166 -20 -243 -20 -45 -23 -62 -15 -72 21 -25 38
-15 64 36 17 33 32 50 44 50 35 0 44 -25 38 -103 -4 -39 -2 -92 2 -117 8 -38
7 -46 -10 -58 -39 -27 -21 -91 52 -189 35 -47 39 -58 39 -112 0 -147 130 -405
214 -427 58 -14 88 62 68 175 -17 96 -57 164 -164 277 -93 99 -147 169 -161
207 -10 27 32 22 98 -13 65 -34 81 -36 107 -13 27 24 22 58 -15 100 -49 56
-87 108 -87 121 0 7 13 9 36 5 49 -8 65 13 57 76 -7 59 15 139 57 204 25 39
33 47 45 37 20 -16 45 -97 45 -145 0 -46 13 -65 46 -65 20 0 41 29 56 79 7 24
41 -61 42 -104 0 -28 -8 -52 -27 -80 -19 -26 -27 -49 -25 -70 4 -44 34 -46 52
-3 23 53 106 113 122 87 11 -19 5 -173 -10 -227 -16 -60 -13 -78 14 -87 13 -4
36 8 75 39 68 56 101 74 154 82 56 9 71 -6 71 -70 0 -57 -33 -139 -70 -171
-12 -11 -26 -28 -31 -37 -13 -24 6 -58 31 -58 37 0 20 -28 -43 -73 -191 -136
-325 -256 -353 -315 -55 -117 3 -292 149 -447 46 -48 58 -55 90 -55 46 0 81
22 95 58 6 15 18 74 27 132 46 294 167 682 310 995 94 207 62 409 -90 560 -89
90 -171 128 -286 133 l-89 4 25 30 c45 54 25 88 -52 88 -46 0 -129 38 -162 73
l-23 25 53 31 c30 17 78 36 107 42 70 16 81 31 57 75 -56 105 96 8 179 -113
52 -76 107 -116 153 -111 33 4 58 47 49 84 -4 13 -45 66 -92 116 -115 125
-139 176 -139 295 0 50 3 94 7 98 4 4 26 3 50 -2 54 -12 88 -1 88 27 0 11 -17
46 -39 78 -32 48 -67 122 -57 122 24 0 70 -28 82 -51 16 -32 16 -32 38 -23 22
8 20 36 -5 84 -29 54 -20 129 23 196 l30 48 24 -29 c35 -43 64 -128 64 -186 0
-76 22 -109 73 -109 21 0 31 7 44 35 9 19 20 35 24 35 3 0 17 -24 30 -52 30
-69 38 -203 16 -279 -17 -56 -13 -71 23 -104 14 -13 34 -19 61 -18 46 2 46 1
25 -109 -17 -90 -53 -181 -95 -242 -43 -61 -71 -125 -71 -159 0 -42 49 -87 95
-87 84 0 120 94 96 246 -11 67 -11 79 7 126 41 110 52 257 21 294 -15 18 -48
18 -68 0 -10 -9 -22 -12 -30 -7 -12 7 -12 17 -2 57 19 74 15 189 -8 264 -11
35 -19 66 -17 67 11 11 37 -14 50 -48 14 -33 20 -39 46 -39 35 0 80 38 80 67
-1 31 -36 97 -70 128 -17 17 -39 43 -47 59 l-15 29 28 -6 c41 -8 62 8 69 51 4
20 13 62 22 92 13 46 16 51 25 36 6 -10 13 -41 17 -69 8 -63 28 -79 70 -54
l29 17 5 -33 c4 -25 -3 -44 -34 -90 -46 -70 -62 -120 -63 -203 -2 -98 43 -130
115 -81 42 27 79 98 79 150 0 21 -9 85 -21 140 -23 114 -20 146 18 225 31 65
52 66 71 2 25 -85 29 -90 65 -90 60 0 70 35 42 140 -8 30 -15 74 -15 97 0 43
17 93 31 93 15 0 40 -47 47 -91 7 -38 11 -44 32 -44 20 0 26 6 28 28 2 16 -1
41 -6 57 -8 22 -6 38 14 80 13 28 34 66 46 83 l22 31 14 -35 c10 -24 12 -54 8
-99z m-461 -647 c-8 -42 -51 -91 -67 -75 -15 15 9 142 35 183 l21 34 9 -54 c5
-29 6 -69 2 -88z m336 -17 c-17 -25 -36 -48 -42 -51 -23 -15 -16 3 23 53 49
63 63 62 19 -2z m-215 -733 c-40 -112 -94 -189 -165 -235 -56 -35 -75 -36 -65
-5 9 31 84 144 125 192 34 39 109 98 116 92 2 -2 -3 -22 -11 -44z m-417 -106
c-2 -67 -13 -101 -32 -105 -29 -6 -49 18 -42 47 9 35 57 111 67 105 4 -3 7
-24 7 -47z m-1784 -511 c8 -20 15 -41 15 -48 -1 -15 -44 66 -55 102 l-7 25 17
-22 c8 -13 22 -38 30 -57z m-242 -236 c30 -11 63 -30 75 -43 23 -24 41 -87 25
-87 -32 0 -163 114 -163 142 0 11 2 11 63 -12z m877 -405 c34 -70 54 -201 29
-193 -43 13 -144 220 -155 316 l-5 47 51 -55 c28 -30 64 -82 80 -115z m665
-12 c-46 -120 -122 -423 -151 -600 -18 -118 -29 -139 -66 -129 -33 9 -112 108
-155 193 -69 138 -54 216 58 315 79 68 301 238 313 238 4 0 5 -8 1 -17z m-857
-277 c65 -33 87 -58 72 -85 -14 -27 -35 -27 -65 3 -23 23 -70 106 -60 106 3 0
27 -11 53 -24z m2532 -141 c-7 -9 -27 -25 -44 -36 -28 -19 -28 -18 6 15 38 36
61 49 38 21z m-679 -287 c-54 -79 -219 -214 -238 -195 -9 10 47 103 84 138 37
36 145 98 171 99 8 0 1 -17 -17 -42z m809 -37 c0 -16 -86 -51 -141 -58 l-54
-6 16 24 c9 13 27 30 40 36 28 15 139 17 139 4z m-850 -330 c0 -12 -76 -61
-101 -64 -27 -3 -49 27 -32 44 21 21 133 38 133 20z"/>
</g>
</svg>
